ply
format ascii 1.0
comment Created in Blender version 4.0.2
element vertex 391
property float x
property float y
property float z
property float s
property float t
element face 264
property list uchar uint vertex_indices
element edge 4
property int vertex1
property int vertex2
end_header
-0.5531544 0.0041713715 0.9474932 0.98129517 -0.0026737852
-0.5531544 8.723182 0.9474928 1.0017447 0.99848586
-0.5531544 8.723182 -0.9474934 0.011784848 0.998486
-0.5531544 0.0041713715 -0.94749296 -0.008664761 -0.0026736914
-0.5531544 0.0041713715 -0.94749296 0.98129517 -0.0026737852
-0.5531544 8.723182 -0.9474934 1.0017447 0.99848586
0.5531544 8.723182 -0.9474934 0.011784848 0.998486
0.5531544 0.0041713715 -0.94749296 -0.008664761 -0.0026736914
0.5531544 0.0041713715 -0.94749296 0.98129517 -0.0026737852
0.5531544 8.723182 -0.9474934 1.0017447 0.99848586
0.5531544 8.723182 0.9474928 0.011784848 0.998486
0.5531544 0.0041713715 0.9474932 -0.008664761 -0.0026736914
0.5531544 0.0041713715 0.9474932 0.98129517 -0.0026737852
0.5531544 8.723182 0.9474928 1.0017447 0.99848586
-0.5531544 8.723182 0.9474928 0.011784848 0.998486
-0.5531544 0.0041713715 0.9474932 -0.008664761 -0.0026736914
-0.5531544 0.0041713715 -0.94749296 0.125 0.5
0.5531544 0.0041713715 -0.94749296 0.375 0.5
0.5531544 0.0041713715 0.9474932 0.375 0.75
-0.5531544 0.0041713715 0.9474932 0.125 0.75
0.5531544 8.723182 -0.9474934 0.08959326 0.9899604
-0.5531544 8.723182 -0.9474934 0.08959326 0.94067466
-0.5531544 8.723182 0.9474928 0.93375623 0.94067466
0.5531544 8.723182 0.9474928 0.93375623 0.9899604
-0.026690798 9.001868 -0.017834572 0.65625 0.5
-0.022698617 9.001868 -0.022699043 0.625 0.5
-0.022698227 9.203201 -0.022699052 0.625 0.5
-0.026690407 9.203201 -0.017834581 0.65625 0.5
-0.023790734 9.001866 -0.057436615 0.5625 0.5
-0.01212833 9.001866 -0.060974345 0.53125 0.5
-0.0062624128 9.001868 -0.031484377 0.53125 0.5
-0.012284325 9.001868 -0.029657662 0.5625 0.5
1.71057e-07 9.001866 0.062168464 1 0.5
1.71057e-07 8.71421 0.062168475 1 1
-0.01212833 8.71421 0.060973924 0.96875 1
-0.01212833 9.001866 0.060973912 0.96875 0.5
0.017834486 9.001868 -0.02669121 0.40625 0.5
0.022698965 9.001868 -0.022699043 0.375 0.5
0.022699354 9.203201 -0.022699052 0.375 0.5
0.017834876 9.203201 -0.026691219 0.40625 0.5
0.0574365 9.001866 -0.023791151 0.3125 0.5
0.060974214 9.001866 -0.012128737 0.28125 0.5
0.031484276 9.001868 -0.0062628197 0.28125 0.5
0.029657567 9.001868 -0.012284738 0.3125 0.5
-0.023790734 8.71421 0.057436116 0.9375 1
-0.023790734 9.001866 0.057436105 0.9375 0.5
0.031484663 9.203201 -0.0062628286 0.28125 0.5
0.029657956 9.203201 -0.012284747 0.3125 0.5
0.023791073 9.001866 0.057436105 0.0625 0.5
0.012128671 9.001866 0.060973912 0.03125 0.5
0.006262752 9.001868 0.03148393 0.03125 0.5
0.012284665 9.001868 0.029657172 0.0625 0.5
-0.034538887 8.71421 0.051691104 0.90625 1
-0.034538887 9.001866 0.051691093 0.90625 0.5
-0.006262024 9.203201 -0.031484384 0.53125 0.5
-0.012283937 9.203201 -0.029657671 0.5625 0.5
-0.04395969 9.001866 0.04395966 0.875 0.5
-0.022698617 9.001868 0.02269857 0.875 0.5
-0.017834162 9.001868 0.02669072 0.90625 0.5
-0.04395969 8.71421 0.04395967 0.875 1
-0.029657247 9.001868 0.012284265 0.8125 0.5
-0.03148395 9.001868 0.006262356 0.78125 0.5
-0.031483557 9.203201 0.006262347 0.78125 0.5
-0.029656857 9.203201 0.012284256 0.8125 0.5
-0.05169119 9.001866 -0.034539297 0.65625 0.5
-0.04395969 9.001866 -0.043960124 0.625 0.5
-0.051691145 8.71421 0.034538828 0.84375 1
-0.051691145 9.001866 0.034538817 0.84375 0.5
0.0062631415 9.203201 0.031483922 0.03125 0.5
0.012285054 9.203201 0.029657163 0.0625 0.5
0.0345392 9.001866 -0.0516916 0.40625 0.5
0.043960046 9.001866 -0.043960124 0.375 0.5
-0.057436194 8.71421 0.02379069 0.8125 1
-0.057436194 9.001866 0.023790676 0.8125 0.5
0.031484276 9.001868 0.0062623504 0.21875 0.5
0.029657595 9.001868 0.012284275 0.1875 0.5
0.029657984 9.203201 0.012284266 0.1875 0.5
0.031484663 9.203201 0.0062623415 0.21875 0.5
0.051691502 9.001866 0.034538817 0.15625 0.5
0.043960046 9.001866 0.04395966 0.125 0.5
0.022698965 9.001868 0.02269857 0.125 0.5
0.026691122 9.001868 0.017834093 0.15625 0.5
-0.060973898 8.71421 0.012128293 0.78125 1
-0.060973898 9.001866 0.0121282805 0.78125 0.5
1.7041818e-07 9.001868 0.032100737 0 0.5
5.592236e-07 9.203201 0.03210073 0 0.5
-0.062168457 9.001866 -2.3796945e-07 0.75 0.5
-0.060973898 9.001866 -0.012128747 0.71875 0.5
-0.03148395 9.001868 -0.006262825 0.71875 0.5
-0.032100763 9.001868 -2.3693464e-07 0.75 0.5
-0.062168457 8.71421 -2.2539557e-07 0.75 1
0.006262752 9.001868 -0.031484377 0.46875 0.5
0.012284665 9.001868 -0.029657662 0.4375 0.5
0.012285054 9.203201 -0.029657671 0.4375 0.5
0.0062631415 9.203201 -0.031484384 0.46875 0.5
1.7649195e-07 9.001866 -0.062168896 0.5 0.5
0.012128671 9.001866 -0.060974345 0.46875 0.5
1.7322454e-07 9.001868 -0.032101188 0.5 0.5
-0.060973898 8.71421 -0.012128735 0.71875 1
-0.02965722 9.001868 -0.012284738 0.6875 0.5
-0.029656831 9.203201 -0.012284747 0.6875 0.5
-0.031483557 9.203201 -0.0062628337 0.71875 0.5
0.062168773 9.001866 -2.3451062e-07 0.25 0.5
0.060974214 9.001866 0.012128271 0.21875 0.5
0.03210109 9.001868 -2.3514866e-07 0.25 0.5
-0.057436146 8.71421 -0.023791138 0.6875 1
-0.057436146 9.001866 -0.023791151 0.6875 0.5
-0.0062624128 9.001868 0.03148393 0.96875 0.5
-0.012284325 9.001868 0.029657172 0.9375 0.5
-0.012283937 9.203201 0.029657163 0.9375 0.5
-0.006262024 9.203201 0.031483922 0.96875 0.5
-0.026690774 9.001868 0.017834093 0.84375 0.5
-0.05169119 8.71421 -0.034539286 0.65625 1
0.017834486 9.001868 0.02669072 0.09375 0.5
0.017834876 9.203201 0.02669071 0.09375 0.5
0.022699354 9.203201 0.02269856 0.125 0.5
1.7041818e-07 9.001868 0.032100737 1 0.5
-0.04395969 8.71421 -0.043960113 0.625 1
0.026691122 9.001868 -0.017834572 0.34375 0.5
0.026691511 9.203201 -0.017834581 0.34375 0.5
-0.034538887 9.001866 -0.0516916 0.59375 0.5
-0.017834162 9.001868 -0.02669121 0.59375 0.5
-0.034538887 8.71421 -0.051691588 0.59375 1
-0.017833773 9.203201 -0.026691219 0.59375 0.5
0.051691502 9.001866 -0.034539297 0.34375 0.5
-0.023790734 8.71421 -0.057436604 0.5625 1
-0.026690384 9.203201 0.017834084 0.84375 0.5
-0.022698227 9.203201 0.02269856 0.875 0.5
0.0345392 9.001866 0.051691093 0.09375 0.5
-0.01212833 8.71421 -0.060974333 0.53125 1
0.03210148 9.203201 -2.4394922e-07 0.25 0.5
1.7649195e-07 8.71421 -0.062168885 0.5 1
5.620299e-07 9.203201 -0.032101195 0.5 0.5
0.012128671 8.71421 -0.060974333 0.46875 1
-0.032100372 9.203201 -2.457352e-07 0.75 0.5
0.023791073 9.001866 -0.057436615 0.4375 0.5
0.023791073 8.71421 -0.057436604 0.4375 1
0.026691511 9.203201 0.017834084 0.15625 0.5
0.05743655 9.001866 0.023790697 0.1875 0.5
0.0345392 8.71421 -0.051691588 0.40625 1
0.043960046 8.71421 -0.043960113 0.375 1
0.051691502 8.71421 -0.034539286 0.34375 1
-0.017833773 9.203201 0.02669071 0.90625 0.5
0.0574365 8.71421 -0.023791138 0.3125 1
0.060974214 8.71421 -0.012128725 0.28125 1
1.71057e-07 9.001866 0.062168464 0 0.5
0.062168773 8.71421 -2.2193674e-07 0.25 1
0.060974214 8.71421 0.012128283 0.21875 1
0.05743655 8.71421 0.02379071 0.1875 1
0.051691502 8.71421 0.034538828 0.15625 1
0.043960046 8.71421 0.04395967 0.125 1
0.0345392 8.71421 0.051691104 0.09375 1
-0.04158258 9.203201 -0.017224558 0.6875 0.5
-0.044143863 9.203201 -0.008781129 0.71875 0.5
0.023791073 8.71421 0.057436116 0.0625 1
-0.01212833 8.71421 0.060973924 0.29682168 0.48538843
1.71057e-07 8.71421 0.062168475 0.25 0.48999998
0.012128671 8.71421 0.060973924 0.20317835 0.48538846
0.023791073 8.71421 0.057436116 0.15815598 0.47173107
0.0345392 8.71421 0.051691104 0.11666313 0.4495527
0.043960046 8.71421 0.04395967 0.08029437 0.4197056
0.051691502 8.71421 0.034538828 0.05044727 0.3833368
0.05743655 8.71421 0.02379071 0.028268933 0.34184405
0.060974214 8.71421 0.012128283 0.014611542 0.2968217
0.062168773 8.71421 -2.2193674e-07 0.01000002 0.25
0.060974214 8.71421 -0.012128725 0.014611542 0.20317832
0.0574365 8.71421 -0.023791138 0.028268918 0.15815595
0.051691502 8.71421 -0.034539286 0.050447345 0.11666311
0.043960046 8.71421 -0.043960113 0.0802944 0.080294386
0.0345392 8.71421 -0.051691588 0.11666313 0.05044733
0.023791073 8.71421 -0.057436604 0.15815598 0.028268918
0.012128671 8.71421 -0.060974333 0.20317835 0.014611542
1.7649195e-07 8.71421 -0.062168885 0.24999999 0.01000002
-0.01212833 8.71421 -0.060974333 0.29682165 0.014611542
-0.023790734 8.71421 -0.057436604 0.34184402 0.028268918
-0.034538887 8.71421 -0.051691588 0.38333684 0.0504473
-0.04395969 8.71421 -0.043960113 0.41970563 0.0802944
-0.05169119 8.71421 -0.034539286 0.4495527 0.11666317
-0.057436146 8.71421 -0.023791138 0.4717311 0.158156
-0.060973898 8.71421 -0.012128735 0.48538846 0.20317833
-0.062168457 8.71421 -2.2539557e-07 0.48999998 0.24999999
-0.060973898 8.71421 0.012128293 0.48538846 0.29682168
-0.057436194 8.71421 0.02379069 0.47173107 0.34184402
-0.051691145 8.71421 0.034538828 0.44955269 0.38333684
-0.04395969 8.71421 0.04395967 0.41970563 0.4197056
-0.034538887 8.71421 0.051691104 0.38333684 0.4495527
-0.023790734 8.71421 0.057436116 0.34184402 0.47173107
5.592236e-07 9.203201 0.03210073 1 0.5
0.012128671 8.71421 0.060973924 0.03125 1
1.71057e-07 8.71421 0.062168475 0 1
-0.041582614 9.203201 0.017224064 0.8125 0.5
-0.044143863 9.203201 0.008780643 0.78125 0.5
-0.03182107 9.214046 0.0063294624 0.78125 0.5
-0.029974792 9.214046 0.012415907 0.8125 0.5
0.044144962 9.203201 -0.008781122 0.28125 0.5
0.041583702 9.203201 -0.017224558 0.3125 0.5
-0.045008708 9.203201 -2.4615204e-07 0.75 0.5
0.0374244 9.203201 -0.025006074 0.34375 0.5
0.03182693 9.203201 -0.03182663 0.375 0.5
0.025006361 9.203201 -0.037424117 0.40625 0.5
-0.03742327 9.203201 0.025005577 0.84375 0.5
0.01722486 9.203201 -0.041583434 0.4375 0.5
5.597423e-07 9.203201 0.045009084 0 0.5
0.008781434 9.203201 0.044144247 0.03125 0.5
-0.0318258 9.203201 0.031826146 0.875 0.5
0.008781434 9.203201 -0.0441447 0.46875 0.5
0.01722486 9.203201 0.04158292 0.0625 0.5
-0.02500526 9.203201 0.037423607 0.90625 0.5
5.636771e-07 9.203201 -0.045009542 0.5 0.5
0.025006361 9.203201 0.037423607 0.09375 0.5
-0.017223742 9.203201 0.04158292 0.9375 0.5
-0.008780315 9.203201 -0.0441447 0.53125 0.5
0.03182693 9.203201 0.031826146 0.125 0.5
-0.008780315 9.203201 0.044144247 0.96875 0.5
-0.017223742 9.203201 -0.041583434 0.5625 0.5
0.0374244 9.203201 0.025005577 0.15625 0.5
5.597423e-07 9.203201 0.045009084 1 0.5
-0.02500526 9.203201 -0.037424117 0.59375 0.5
0.04158374 9.203201 0.017224079 0.1875 0.5
-0.0318258 9.203201 -0.03182663 0.625 0.5
0.044144962 9.203201 0.008780635 0.21875 0.5
-0.037423305 9.203201 -0.025006074 0.65625 0.5
0.04500981 9.203201 -2.436479e-07 0.25 0.5
0.012416603 9.214046 0.029975 0.0625 0.5
0.0063301562 9.214046 0.031821333 0.03125 0.5
0.0063301562 9.214046 0.031821333 0.03125 0.5
0.012416603 9.214046 0.029975 0.0625 0.5
0.022942513 9.214046 -0.022942312 0.375 0.5
0.018025905 9.214046 -0.026977263 0.40625 0.5
-0.026976528 9.214046 0.018025214 0.84375 0.5
0.012416603 9.214046 -0.029975506 0.4375 0.5
4.5902243e-07 9.214046 0.03244475 0 0.5
-0.022941586 9.214046 0.022941822 0.875 0.5
0.0063301562 9.214046 -0.0318218 0.46875 0.5
-0.018024998 9.214046 0.026976753 0.90625 0.5
4.618588e-07 9.214046 -0.032445222 0.5 0.5
0.018025905 9.214046 0.026976753 0.09375 0.5
-0.0124156885 9.214046 0.029975 0.9375 0.5
-0.0063292384 9.214046 -0.0318218 0.53125 0.5
0.022942513 9.214046 0.022941822 0.125 0.5
-0.0063292384 9.214046 0.031821333 0.96875 0.5
-0.0124156885 9.214046 -0.029975506 0.5625 0.5
0.026977452 9.214046 0.018025214 0.15625 0.5
4.5902243e-07 9.214046 0.03244475 1 0.5
-0.018024998 9.214046 -0.026977263 0.59375 0.5
0.02997571 9.214046 0.012415917 0.1875 0.5
-0.022941586 9.214046 -0.022942312 0.625 0.5
0.031821974 9.214046 0.0063294563 0.21875 0.5
-0.026976554 9.214046 -0.01802571 0.65625 0.5
0.032445397 9.214046 -2.4439618e-07 0.25 0.5
-0.02997477 9.214046 -0.012416398 0.6875 0.5
0.031821974 9.214046 -0.0063299444 0.28125 0.5
-0.03182107 9.214046 -0.0063299495 0.71875 0.5
0.029975684 9.214046 -0.012416398 0.3125 0.5
-0.032444492 9.214046 -2.462013e-07 0.75 0.5
0.026977452 9.214046 -0.01802571 0.34375 0.5
0.026977452 9.214046 0.018025214 0.15625 0.5
0.022942513 9.214046 0.022941822 0.125 0.5
0.017209144 9.214046 0.01720845 0.125 0.5
0.020235723 9.214046 0.013520533 0.15625 0.5
-0.022941586 9.214046 0.022941822 0.875 0.5
-0.018024998 9.214046 0.026976753 0.90625 0.5
0.0063301562 9.214046 -0.0318218 0.46875 0.5
4.618588e-07 9.214046 -0.032445222 0.5 0.5
0.018025905 9.214046 0.026976753 0.09375 0.5
-0.0124156885 9.214046 0.029975 0.9375 0.5
-0.0063292384 9.214046 -0.0318218 0.53125 0.5
-0.0063292384 9.214046 0.031821333 0.96875 0.5
-0.0124156885 9.214046 -0.029975506 0.5625 0.5
4.5902243e-07 9.214046 0.03244475 1 0.5
-0.018024998 9.214046 -0.026977263 0.59375 0.5
0.02997571 9.214046 0.012415917 0.1875 0.5
-0.022941586 9.214046 -0.022942312 0.625 0.5
0.031821974 9.214046 0.0063294563 0.21875 0.5
-0.026976554 9.214046 -0.01802571 0.65625 0.5
0.032445397 9.214046 -2.4439618e-07 0.25 0.5
-0.02997477 9.214046 -0.012416398 0.6875 0.5
0.031821974 9.214046 -0.0063299444 0.28125 0.5
-0.03182107 9.214046 -0.0063299495 0.71875 0.5
0.029975684 9.214046 -0.012416398 0.3125 0.5
-0.032444492 9.214046 -2.462013e-07 0.75 0.5
0.026977452 9.214046 -0.01802571 0.34375 0.5
-0.03182107 9.214046 0.0063294624 0.78125 0.5
0.022942513 9.214046 -0.022942312 0.375 0.5
-0.029974792 9.214046 0.012415907 0.8125 0.5
0.018025905 9.214046 -0.026977263 0.40625 0.5
-0.026976528 9.214046 0.018025214 0.84375 0.5
0.012416603 9.214046 -0.029975506 0.4375 0.5
4.5902243e-07 9.214046 0.03244475 0 0.5
0.024337193 9.214046 -2.4474383e-07 0.25 0.5
0.023869567 9.214046 0.0047476226 0.21875 0.5
0.009367823 10.1377125 0.0018615617 0.21875 0.5
0.0095512 10.1377125 -2.854208e-07 0.25 0.5
-0.0047474066 9.214046 0.023868915 0.96875 0.5
4.583507e-07 9.214046 0.024336535 1 0.5
-0.009312812 9.214046 -0.022484489 0.5625 0.5
-0.013520318 9.214046 -0.02023553 0.59375 0.5
0.022484697 9.214046 0.009313037 0.1875 0.5
-0.017208219 9.214046 -0.01720894 0.625 0.5
-0.020234823 9.214046 -0.013521029 0.65625 0.5
-0.022483764 9.214046 -0.00931352 0.6875 0.5
0.023869567 9.214046 -0.004748111 0.28125 0.5
-0.023868663 9.214046 -0.0047481153 0.71875 0.5
0.022484679 9.214046 -0.00931352 0.3125 0.5
-0.024336288 9.214046 -2.4609784e-07 0.75 0.5
0.020235723 9.214046 -0.013521029 0.34375 0.5
-0.023868663 9.214046 0.004747627 0.78125 0.5
0.017209144 9.214046 -0.01720894 0.375 0.5
-0.022483781 9.214046 0.009313029 0.8125 0.5
0.013521227 9.214046 -0.02023553 0.40625 0.5
-0.020234805 9.214046 0.013520533 0.84375 0.5
0.009313727 9.214046 -0.022484489 0.4375 0.5
4.583507e-07 9.214046 0.024336535 0 0.5
0.004748323 9.214046 0.023868915 0.03125 0.5
-0.017208219 9.214046 0.01720845 0.875 0.5
0.004748323 9.214046 -0.023869382 0.46875 0.5
0.009313727 9.214046 0.022483991 0.0625 0.5
-0.013520318 9.214046 0.020235026 0.90625 0.5
4.6047825e-07 9.214046 -0.024337007 0.5 0.5
0.013521227 9.214046 0.020235026 0.09375 0.5
-0.009312812 9.214046 0.022483991 0.9375 0.5
-0.0047474066 9.214046 -0.023869382 0.53125 0.5
7.698385e-06 10.1377125 0.0095432345 0.75 0.48999998
-0.0018541475 10.1377125 0.009359859 0.79682165 0.48538843
-0.0036444433 10.1377125 0.008816771 0.841844 0.47173107
-0.005294391 10.1377125 0.0079348525 0.88333684 0.4495527
-0.006740579 10.1377125 0.0067479988 0.9197056 0.4197056
-0.007927435 10.1377125 0.0053018043 0.94955266 0.38333684
-0.008809358 10.1377125 0.0036518578 0.97173107 0.34184402
-0.009352431 10.1377125 0.0018615632 0.98538846 0.29682168
-0.009535806 10.1377125 -2.8595178e-07 0.99 0.24999999
-0.009352431 10.1377125 -0.0018621337 0.98538846 0.20317833
-0.00880935 10.1377125 -0.0036524297 0.97173107 0.158156
-0.007927442 10.1377125 -0.005302378 0.9495527 0.11666317
-0.006740579 10.1377125 -0.00674857 0.9197056 0.0802944
-0.005294391 10.1377125 -0.007935428 0.88333684 0.0504473
-0.0036444433 10.1377125 -0.008817344 0.841844 0.028268918
-0.0018541475 10.1377125 -0.0093604205 0.79682165 0.014611542
7.699219e-06 10.1377125 -0.009543798 0.75 0.01000002
0.0018695443 10.1377125 -0.0093604205 0.70317835 0.014611542
0.0036598395 10.1377125 -0.008817344 0.658156 0.028268918
0.005309785 10.1377125 -0.007935428 0.6166631 0.05044733
0.0067559783 10.1377125 -0.00674857 0.5802944 0.080294386
0.007942833 10.1377125 -0.005302378 0.55044734 0.11666311
0.008824748 10.1377125 -0.0036524297 0.52826893 0.15815595
0.009367823 10.1377125 -0.0018621321 0.51461154 0.20317832
0.0095512 10.1377125 -2.854208e-07 0.51 0.25
0.009367823 10.1377125 0.0018615617 0.51461154 0.2968217
0.0088247545 10.1377125 0.0036518609 0.52826893 0.34184405
0.007942833 10.1377125 0.0053018043 0.5504473 0.3833368
0.0067559783 10.1377125 0.0067479988 0.5802944 0.4197056
0.005309785 10.1377125 0.0079348525 0.6166631 0.4495527
0.0036598395 10.1377125 0.008816771 0.658156 0.47173107
0.0018695443 10.1377125 0.009359859 0.70317835 0.48538846
-0.007927442 10.1377125 -0.005302378 0.65625 0.5
-0.00880935 10.1377125 -0.0036524297 0.6875 0.5
0.009367823 10.1377125 -0.0018621321 0.28125 0.5
-0.009352431 10.1377125 -0.0018621337 0.71875 0.5
0.008824748 10.1377125 -0.0036524297 0.3125 0.5
-0.009535806 10.1377125 -2.8595178e-07 0.75 0.5
0.007942833 10.1377125 -0.005302378 0.34375 0.5
-0.009352431 10.1377125 0.0018615632 0.78125 0.5
0.0067559783 10.1377125 -0.00674857 0.375 0.5
-0.008809358 10.1377125 0.0036518578 0.8125 0.5
0.005309785 10.1377125 -0.007935428 0.40625 0.5
-0.007927435 10.1377125 0.0053018043 0.84375 0.5
0.0036598395 10.1377125 -0.008817344 0.4375 0.5
7.698385e-06 10.1377125 0.0095432345 0 0.5
0.0018695443 10.1377125 0.009359859 0.03125 0.5
-0.006740579 10.1377125 0.0067479988 0.875 0.5
0.0018695443 10.1377125 -0.0093604205 0.46875 0.5
0.0036598395 10.1377125 0.008816771 0.0625 0.5
-0.005294391 10.1377125 0.0079348525 0.90625 0.5
7.699219e-06 10.1377125 -0.009543798 0.5 0.5
0.005309785 10.1377125 0.0079348525 0.09375 0.5
-0.0036444433 10.1377125 0.008816771 0.9375 0.5
-0.0018541475 10.1377125 -0.0093604205 0.53125 0.5
0.0067559783 10.1377125 0.0067479988 0.125 0.5
-0.0018541475 10.1377125 0.009359859 0.96875 0.5
-0.0036444433 10.1377125 -0.008817344 0.5625 0.5
0.007942833 10.1377125 0.0053018043 0.15625 0.5
7.698385e-06 10.1377125 0.0095432345 1 0.5
-0.005294391 10.1377125 -0.007935428 0.59375 0.5
0.0088247545 10.1377125 0.0036518609 0.1875 0.5
-0.006740579 10.1377125 -0.00674857 0.625 0.5
0.011978011 9.096298 0.060215596 0 0
1.6485286e-07 9.096298 0.061395247 0 0
1.6485286e-07 9.096298 0.048956744 0 0
0.052173324 9.532728 -0.021611711 0 0
0.046954874 9.532728 -0.031376008 0 0
0.03993168 9.532728 -0.0399331 0 0
4 0 1 2 3
4 4 5 6 7
4 8 9 10 11
4 12 13 14 15
4 16 17 18 19
4 20 21 22 23
4 24 25 26 27
4 28 29 30 31
4 32 33 34 35
4 36 37 38 39
4 40 41 42 43
4 35 34 44 45
4 43 42 46 47
4 48 49 50 51
4 45 44 52 53
4 31 30 54 55
4 53 56 57 58
4 53 52 59 56
4 60 61 62 63
4 64 65 25 24
4 56 59 66 67
4 51 50 68 69
4 70 71 37 36
4 67 66 72 73
4 74 75 76 77
4 78 79 80 81
4 73 72 82 83
4 50 84 85 68
4 86 87 88 89
4 83 82 90 86
4 91 92 93 94
4 95 96 91 97
4 86 90 98 87
4 88 99 100 101
4 102 103 74 104
4 87 98 105 106
4 107 108 109 110
4 67 73 60 111
4 106 105 112 64
4 80 113 114 115
4 32 35 107 116
4 64 112 117 65
4 37 118 119 38
4 120 28 31 121
4 65 117 122 120
4 25 121 123 26
4 124 40 43 118
4 120 122 125 28
4 57 111 126 127
4 128 48 51 113
4 28 125 129 29
4 42 104 130 46
4 45 53 58 108
4 29 129 131 95
4 30 97 132 54
4 106 64 24 99
4 95 131 133 96
4 61 89 134 62
4 135 70 36 92
4 96 133 136 135
4 75 81 137 76
4 138 78 81 75
4 135 136 139 70
4 92 36 39 93
4 83 86 89 61
4 70 139 140 71
4 99 24 27 100
4 29 95 97 30
4 71 140 141 124
4 108 58 142 109
4 41 102 104 42
4 124 141 143 40
4 113 51 69 114
4 56 67 111 57
4 40 143 144 41
4 118 43 47 119
4 49 145 84 50
4 41 144 146 102
4 121 31 55 123
4 65 120 121 25
4 102 146 147 103
4 111 60 63 126
4 71 124 118 37
4 103 147 148 138
4 104 74 77 130
4 79 128 113 80
4 138 148 149 78
4 97 91 94 132
4 35 45 108 107
4 78 149 150 79
4 89 88 101 134
4 87 106 99 88
4 79 150 151 128
4 101 100 152 153
4 96 135 92 91
4 128 151 154 48
32 155 156 157 158 159 160 161 162 163 164 165 166 167 168 169 170 171 172 173 174 175 176 177 178 179 180 181 182 183 184 185 186
4 116 107 110 187
4 48 154 188 49
4 58 57 127 142
4 73 83 61 60
4 49 188 189 145
4 103 138 75 74
4 81 80 115 137
4 190 191 192 193
4 47 46 194 195
4 134 101 153 196
4 119 47 195 197
4 62 134 196 191
4 38 119 197 198
4 63 62 191 190
4 39 38 198 199
4 126 63 190 200
4 93 39 199 201
4 68 85 202 203
4 127 126 200 204
4 94 93 201 205
4 69 68 203 206
4 142 127 204 207
4 132 94 205 208
4 114 69 206 209
4 109 142 207 210
4 54 132 208 211
4 115 114 209 212
4 110 109 210 213
4 55 54 211 214
4 137 115 212 215
4 187 110 213 216
4 123 55 214 217
4 76 137 215 218
4 26 123 217 219
4 77 76 218 220
4 27 26 219 221
4 130 77 220 222
4 100 27 221 152
4 46 130 222 194
4 223 224 225 226
4 199 198 227 228
4 200 190 193 229
4 201 199 228 230
4 203 202 231 224
4 204 200 229 232
4 205 201 230 233
4 206 203 224 223
4 207 204 232 234
4 208 205 233 235
4 209 206 223 236
4 210 207 234 237
4 211 208 235 238
4 212 209 236 239
4 213 210 237 240
4 214 211 238 241
4 215 212 239 242
4 216 213 240 243
4 217 214 241 244
4 218 215 242 245
4 219 217 244 246
4 220 218 245 247
4 221 219 246 248
4 222 220 247 249
4 152 221 248 250
4 194 222 249 251
4 153 152 250 252
4 195 194 251 253
4 196 153 252 254
4 197 195 253 255
4 191 196 254 192
4 198 197 255 227
4 256 257 258 259
4 234 232 260 261
4 235 233 262 263
4 236 223 226 264
4 237 234 261 265
4 238 235 263 266
4 239 236 264 257
4 240 237 265 267
4 241 238 266 268
4 242 239 257 256
4 243 240 267 269
4 244 241 268 270
4 245 242 256 271
4 246 244 270 272
4 247 245 271 273
4 248 246 272 274
4 249 247 273 275
4 250 248 274 276
4 251 249 275 277
4 252 250 276 278
4 253 251 277 279
4 254 252 278 280
4 255 253 279 281
4 192 254 280 282
4 227 255 281 283
4 193 192 282 284
4 228 227 283 285
4 229 193 284 286
4 230 228 285 287
4 224 231 288 225
4 232 229 286 260
4 233 230 287 262
4 289 290 291 292
4 269 267 293 294
4 270 268 295 296
4 271 256 259 297
4 272 270 296 298
4 273 271 297 290
4 274 272 298 299
4 275 273 290 289
4 276 274 299 300
4 277 275 289 301
4 278 276 300 302
4 279 277 301 303
4 280 278 302 304
4 281 279 303 305
4 282 280 304 306
4 283 281 305 307
4 284 282 306 308
4 285 283 307 309
4 286 284 308 310
4 287 285 309 311
4 225 288 312 313
4 260 286 310 314
4 262 287 311 315
4 226 225 313 316
4 261 260 314 317
4 263 262 315 318
4 264 226 316 319
4 265 261 317 320
4 266 263 318 321
4 257 264 319 258
4 267 265 320 293
4 268 266 321 295
32 322 323 324 325 326 327 328 329 330 331 332 333 334 335 336 337 338 339 340 341 342 343 344 345 346 347 348 349 350 351 352 353
4 300 299 354 355
4 301 289 292 356
4 302 300 355 357
4 303 301 356 358
4 304 302 357 359
4 305 303 358 360
4 306 304 359 361
4 307 305 360 362
4 308 306 361 363
4 309 307 362 364
4 310 308 363 365
4 311 309 364 366
4 313 312 367 368
4 314 310 365 369
4 315 311 366 370
4 316 313 368 371
4 317 314 369 372
4 318 315 370 373
4 319 316 371 374
4 320 317 372 375
4 321 318 373 376
4 258 319 374 377
4 293 320 375 378
4 295 321 376 379
4 259 258 377 380
4 294 293 378 381
4 296 295 379 382
4 297 259 380 383
4 298 296 382 384
4 290 297 383 291
4 299 298 384 354
387 386
386 385
388 389
389 390
