ply
format ascii 1.0
comment Created in Blender version 4.0.2
element vertex 302
property float x
property float y
property float z
property float s
property float t
element face 85
property list uchar uint vertex_indices
end_header
-0.71910846 2.3024526 0.71910834 0.6775744 0.28895593
-0.71910846 4.770054 0.7191083 0.67757434 0.69844043
-0.71910846 4.770054 -0.71910864 0.48339745 0.69667625
-0.71910846 2.3024526 -0.7191086 0.48339745 0.28719172
-0.71910846 2.3024526 -0.7191086 0.6775744 0.28895593
-0.71910846 4.770054 -0.71910864 0.67757434 0.69844043
0.71910846 4.770054 -0.71910864 0.48339745 0.69667625
0.71910846 2.3024526 -0.7191086 0.48339745 0.28719172
0.71910846 2.3024526 -0.7191086 0.6775744 0.28895593
0.71910846 4.770054 -0.71910864 0.67757434 0.69844043
0.71910846 4.770054 0.7191083 0.48339745 0.69667625
0.71910846 2.3024526 0.71910834 0.48339745 0.28719172
0.71910846 2.3024526 0.71910834 0.6775744 0.28895593
0.71910846 4.770054 0.7191083 0.67757434 0.69844043
-0.71910846 4.770054 0.7191083 0.48339745 0.69667625
-0.71910846 2.3024526 0.71910834 0.48339745 0.28719172
-0.71910846 0.07284012 -0.71910846 0.33851638 0.66116065
0.71910846 0.07284012 -0.71910846 0.50777453 0.66116065
0.71910846 0.07284018 0.71910846 0.50777453 0.7997643
-0.71910846 0.07284018 0.71910846 0.33851635 0.7997643
0.71910846 4.770054 0.7191083 0.7967874 0.32343706
0.71910846 4.770054 -0.71910864 0.98672307 0.3234375
0.71910846 6.088703 -0.7191087 0.9856461 0.6975881
0.71910846 6.088703 0.7191082 0.79571044 0.69758755
0.71910846 6.088703 -0.7191087 0.5217249 0.14423557
-0.71910846 6.088703 -0.7191087 0.44601476 0.1443807
-0.7190831 6.088703 -0.7190833 0.44601476 0.07844867
-0.29421347 6.088703 -0.71379346 0.5217249 0.07830342
0.29421353 6.088703 -0.71379346 0.050004244 0.66229004
0.7190831 6.088703 -0.7190833 3.0100346e-06 0.66178024
-0.71910846 4.770054 -0.71910864 0.7967874 0.32343706
-0.71910846 4.770054 0.7191083 0.98672307 0.3234375
-0.71910846 6.088703 0.7191082 0.9856461 0.6975881
-0.71910846 6.088703 -0.7191087 0.79571044 0.69758755
-0.71910846 4.770054 0.7191083 0.7967874 0.32343706
0.71910846 4.770054 0.7191083 0.98672307 0.3234375
0.71910846 6.088703 0.7191082 0.9856461 0.6975881
-0.71910846 6.088703 0.7191082 0.79571044 0.69758755
0.71910846 4.770054 -0.71910864 0.7967874 0.32343706
-0.71910846 4.770054 -0.71910864 0.98672307 0.3234375
-0.71910846 6.088703 -0.7191087 0.9856461 0.6975881
0.71910846 6.088703 -0.7191087 0.79571044 0.69758755
0.7137932 6.088703 0.29421324 0.08748621 0.0016479732
0.7137932 6.088703 -0.29421374 0.28167307 0.0016479732
0.36294344 7.699159 -0.1495995 0.23223737 0.41446525
0.36294344 7.699159 0.14959878 0.13349885 0.41446525
0.29421353 6.088703 -0.71379346 0.08748621 0.0016479732
-0.29421347 6.088703 -0.71379346 0.28167307 0.0016479732
-0.14959915 7.699159 -0.36294377 0.23223737 0.41446525
0.14959912 7.699159 -0.36294377 0.13349885 0.41446525
-0.14959912 7.699159 0.3629431 0.24656539 0.44080108
0.14959915 7.699159 0.3629431 0.12601449 0.44080108
0.14959915 7.838319 0.3629431 0.12601449 0.39556295
-0.14959912 7.838319 0.3629431 0.24656539 0.39556295
-0.2942135 6.088703 0.713793 0.08748621 0.0016479732
0.29421347 6.088703 0.713793 0.28167307 0.0016479732
0.14959915 7.699159 0.3629431 0.23223737 0.41446525
-0.14959912 7.699159 0.3629431 0.13349885 0.41446525
0.71910846 6.088703 0.7191082 0.7967874 0.32343706
0.71910846 6.088703 -0.7191087 0.98672307 0.3234375
0.7190831 6.088703 -0.7190833 0.9856461 0.6975881
0.7137932 6.088703 -0.29421374 0.79571044 0.69758755
0.7137932 6.088703 0.29421324 0.00062555075 0.7594335
0.7190831 6.088703 0.71908283 2.9802322e-06 0.8003789
-0.71910846 6.088703 -0.7191087 0.16925818 0.6617778
-0.71910846 6.088703 0.7191082 0.16925816 0.8003814
-0.7190831 6.088703 0.71908283 0.16925515 0.80037904
-0.7137932 6.088703 0.2942132 0.16863263 0.7594335
-0.7137932 6.088703 -0.29421377 0.16863263 0.7027257
-0.7190831 6.088703 -0.7190833 0.1692552 0.66178024
0.71910846 6.088703 0.7191082 0 0.8003814
0.29421347 6.088703 0.713793 0.050004244 0.7998692
-0.2942135 6.088703 0.713793 0.11925393 0.7998692
-0.7137932 6.088703 0.2942132 0.53060895 0.13010724
-0.7190831 6.088703 0.71908283 0.4411912 0.1299407
-0.7190831 6.384388 0.7190828 0.4411912 0.07827631
-0.7137932 6.384388 0.2942132 0.53060895 0.07844281
-0.29421347 6.088703 -0.71379346 0.5237903 0.1251677
-0.7190831 6.088703 -0.7190833 0.43965772 0.125012
-0.7190831 6.388831 -0.71908337 0.43965772 0.076522216
-0.29421347 6.388831 -0.7137935 0.5237903 0.07667818
0.7137932 6.088703 -0.29421374 0.6077771 0.6608961
0.7190831 6.088703 -0.7190833 0.6077771 0.6608961
0.7190831 6.088703 -0.7190833 0.6077771 0.6608961
0.7137932 6.088703 -0.29421374 0.6077771 0.6608961
0.29421347 6.088703 0.713793 0.5270365 0.12834816
0.7190831 6.088703 0.71908283 0.4413161 0.12819846
0.7190831 6.3910146 0.7190828 0.4413161 0.07898726
0.29421347 6.3910146 0.7137929 0.5270365 0.0791368
-0.7137932 6.088703 -0.29421377 0.35303882 0.0034484996
-0.36294344 7.699159 -0.14959946 0.25540507 0.4194078
-0.14959915 7.699159 -0.36294377 0.1274305 0.4215912
-0.29421347 6.088703 -0.71379346 0.014410883 0.0027144752
0.36294344 7.699159 -0.1495995 0.12911579 0.42475674
0.7137932 6.088703 -0.29421374 0.03680137 -0.0016439706
0.29421353 6.088703 -0.71379346 0.32722935 -0.0031589782
0.14959912 7.699159 -0.36294377 0.22978637 0.42207524
0.14959915 7.699159 0.3629431 0.12911579 0.42475674
0.29421347 6.088703 0.713793 0.03680137 -0.0016439706
0.7137932 6.088703 0.29421324 0.32722935 -0.0031589782
0.36294344 7.699159 0.14959878 0.22978637 0.42207524
-0.2942135 6.088703 0.713793 0.35303882 0.0034484996
-0.14959912 7.699159 0.3629431 0.25540507 0.4194078
-0.36294344 7.699159 0.1495988 0.1274305 0.4215912
-0.7137932 6.088703 0.2942132 0.014410883 0.0027144752
-0.7137932 6.088703 -0.29421377 0.08748621 0.0016479732
-0.7137932 6.088703 0.2942132 0.28167307 0.0016479732
-0.36294344 7.699159 0.1495988 0.23223737 0.41446525
-0.36294344 7.699159 -0.14959946 0.13349885 0.41446525
0.14959912 7.838319 -0.36294377 0.12779176 0.42599794
-0.14959915 7.838319 -0.36294377 0.24478793 0.42599794
-0.024164949 8.472402 -0.058627084 0.19573715 0.6427106
0.024164936 8.472402 -0.058627084 0.17683858 0.6427106
0.14959915 7.699159 0.3629431 0.24656539 0.44080108
0.36294344 7.699159 0.14959878 0.12601449 0.44080108
0.36294344 7.838319 0.14959878 0.12601449 0.39556295
0.14959915 7.838319 0.3629431 0.24656539 0.39556295
-0.36294344 7.699159 -0.14959946 0.24656539 0.44080108
-0.36294344 7.699159 0.1495988 0.12601449 0.44080108
-0.36294344 7.838319 0.1495988 0.12601449 0.39556295
-0.36294344 7.838319 -0.14959946 0.24656539 0.39556295
0.36294344 7.699159 -0.1495995 0.24656539 0.44080108
0.14959912 7.699159 -0.36294377 0.12601449 0.44080108
0.14959912 7.838319 -0.36294377 0.12601449 0.39556295
0.36294344 7.838319 -0.1495995 0.24656539 0.39556295
0.36294344 7.699159 0.14959878 0.24656539 0.44080108
0.36294344 7.699159 -0.1495995 0.12601449 0.44080108
0.36294344 7.838319 -0.1495995 0.12601449 0.39556295
0.36294344 7.838319 0.14959878 0.24656539 0.39556295
-0.14959915 7.699159 -0.36294377 0.24656539 0.44080108
-0.36294344 7.699159 -0.14959946 0.12601449 0.44080108
-0.36294344 7.838319 -0.14959946 0.12601449 0.39556295
-0.14959915 7.838319 -0.36294377 0.24656539 0.39556295
0.14959912 7.699159 -0.36294377 0.24656539 0.44080108
-0.14959915 7.699159 -0.36294377 0.12601449 0.44080108
-0.14959915 7.838319 -0.36294377 0.12601449 0.39556295
0.14959912 7.838319 -0.36294377 0.24656539 0.39556295
-0.36294344 7.699159 0.1495988 0.24656539 0.44080108
-0.14959912 7.699159 0.3629431 0.12601449 0.44080108
-0.14959912 7.838319 0.3629431 0.12601449 0.39556295
-0.36294344 7.838319 0.1495988 0.24656539 0.39556295
-0.024164949 8.472402 -0.058627084 0.18264848 0.59431297
-0.058626723 8.472402 -0.024165306 0.19049728 0.59431297
-0.022788083 9.011927 -0.009392724 0.1880981 0.6658213
-0.009393614 9.011927 -0.022787195 0.18504742 0.6658213
-0.36294344 7.838319 -0.14959946 0.12779176 0.42599794
-0.36294344 7.838319 0.1495988 0.24478793 0.42599794
-0.058626723 8.472402 0.024164574 0.19573715 0.6427106
-0.058626723 8.472402 -0.024165306 0.17683858 0.6427106
0.14959915 7.838319 0.3629431 0.12779176 0.42599794
0.36294344 7.838319 0.14959878 0.24478793 0.42599794
0.058626715 8.472402 0.024164574 0.19573715 0.6427106
0.024164936 8.472402 0.058626354 0.17683858 0.6427106
-0.14959915 7.838319 -0.36294377 0.12779176 0.42599794
-0.36294344 7.838319 -0.14959946 0.24478793 0.42599794
-0.058626723 8.472402 -0.024165306 0.19573715 0.6427106
-0.024164949 8.472402 -0.058627084 0.17683858 0.6427106
0.36294344 7.838319 0.14959878 0.12779176 0.42599794
0.36294344 7.838319 -0.1495995 0.24478793 0.42599794
0.058626715 8.472402 -0.024165314 0.19573715 0.6427106
0.058626715 8.472402 0.024164574 0.17683858 0.6427106
-0.14959912 7.838319 0.3629431 0.12779176 0.42599794
0.14959915 7.838319 0.3629431 0.24478793 0.42599794
0.024164936 8.472402 0.058626354 0.19573715 0.6427106
-0.024164945 8.472402 0.058626354 0.17683858 0.6427106
-0.36294344 7.838319 0.1495988 0.12779176 0.42599794
-0.14959912 7.838319 0.3629431 0.24478793 0.42599794
-0.024164945 8.472402 0.058626354 0.19573715 0.6427106
-0.058626723 8.472402 0.024164574 0.17683858 0.6427106
0.36294344 7.838319 -0.1495995 0.12779176 0.42599794
0.14959912 7.838319 -0.36294377 0.24478793 0.42599794
0.024164936 8.472402 -0.058627084 0.19573715 0.6427106
0.058626715 8.472402 -0.024165314 0.17683858 0.6427106
0.7190831 6.088703 -0.7190833 0.6077771 0.6608961
0.7137932 6.088703 -0.29421374 0.6077771 0.6608961
0.29421353 6.088703 -0.71379346 0.6077771 0.6608961
0.29421353 6.088703 -0.71379346 0.6077771 0.6608961
0.71910846 6.088703 -0.7191087 0.6077771 0.6608961
0.71910846 6.088703 -0.7191087 0.6077771 0.6608961
0.29421353 6.088703 -0.71379346 0.6077771 0.6608961
0.29421353 6.088703 -0.71379346 0.6077771 0.6608961
0.7137932 6.088703 -0.29421374 0.5217249 0.14423557
0.7190831 6.088703 -0.7190833 0.44601476 0.1443807
0.7190831 6.39892 -0.71908337 0.44601476 0.07844867
0.7137932 6.39892 -0.29421374 0.5217249 0.07830342
0.7137932 6.088703 -0.29421374 0.6077771 0.6608961
0.71910846 6.088703 -0.7191087 0.6077771 0.6608961
0.7137932 6.088703 0.29421324 0.6077771 0.6608961
0.7137932 6.088703 0.29421324 0.6077771 0.6608961
0.7137932 6.39892 -0.29421374 0.20544623 0.13218968
0.7190831 6.39892 -0.71908337 0.2781535 0.1224601
0.57569665 6.666708 -0.57569695 0.24298689 0.19891784
0.29421353 6.088703 -0.71379346 0.5217249 0.14423557
0.7137932 6.088703 -0.29421374 0.44601476 0.1443807
0.7137932 6.39892 -0.29421374 0.44601476 0.07844867
0.29421353 6.39892 -0.7137935 0.5217249 0.07830342
0.7190831 6.088703 -0.7190833 0.5217249 0.14423557
0.29421353 6.088703 -0.71379346 0.44601476 0.1443807
0.29421353 6.39892 -0.7137935 0.44601476 0.07844867
0.7190831 6.39892 -0.71908337 0.5217249 0.07830342
0.29421353 6.39892 -0.7137935 0.20544623 0.13218968
0.7137932 6.39892 -0.29421374 0.2781535 0.1224601
0.7190831 6.39892 -0.71908337 0.20544623 0.13218968
0.29421353 6.39892 -0.7137935 0.2781535 0.1224601
0.29421347 6.3910146 0.7137929 0.19573069 0.122234255
0.7190831 6.3910146 0.7190828 0.31541577 0.11745572
0.57569665 6.641501 0.57569635 0.24000654 0.18313116
0.7137932 6.088703 0.29421324 0.5270365 0.12834816
0.29421347 6.088703 0.713793 0.4413161 0.12819846
0.29421347 6.3910146 0.7137929 0.4413161 0.07898726
0.7137932 6.3910146 0.29421324 0.5270365 0.0791368
0.7190831 6.088703 0.71908283 0.5270365 0.12834816
0.7137932 6.088703 0.29421324 0.4413161 0.12819846
0.7137932 6.3910146 0.29421324 0.4413161 0.07898726
0.7190831 6.3910146 0.7190828 0.5270365 0.0791368
-0.7190831 6.384388 0.7190828 0.20259267 0.12363332
-0.2942135 6.384388 0.7137929 0.3114877 0.12383019
-0.57569665 6.6154113 0.57569635 0.23934211 0.17668279
0.7137932 6.3910146 0.29421324 0.19573069 0.122234255
0.29421347 6.3910146 0.7137929 0.31541577 0.11745572
0.7190831 6.3910146 0.7190828 0.19573069 0.122234255
0.7137932 6.3910146 0.29421324 0.31541577 0.11745572
-0.2942135 6.088703 0.713793 0.53060895 0.13010724
-0.7137932 6.088703 0.2942132 0.4411912 0.1299407
-0.7137932 6.384388 0.2942132 0.4411912 0.07827631
-0.2942135 6.384388 0.7137929 0.53060895 0.07844281
-0.7190831 6.088703 0.71908283 0.53060895 0.13010724
-0.2942135 6.088703 0.713793 0.4411912 0.1299407
-0.2942135 6.384388 0.7137929 0.4411912 0.07827631
-0.7190831 6.384388 0.7190828 0.53060895 0.07844281
-0.7190831 6.388831 -0.71908337 0.20076959 0.12863424
-0.7137932 6.388831 -0.29421377 0.30498147 0.12882489
-0.57569665 6.624507 -0.57569695 0.2359396 0.1803728
-0.2942135 6.384388 0.7137929 0.20259267 0.12363332
-0.7137932 6.384388 0.2942132 0.3114877 0.12383019
-0.7137932 6.384388 0.2942132 0.19586843 0.1366592
-0.7190831 6.384388 0.7190828 0.30078265 0.11276793
-0.57569665 6.6154113 0.57569635 0.24874675 0.17961104
-0.7137932 6.088703 -0.29421377 0.5237903 0.1251677
-0.29421347 6.088703 -0.71379346 0.43965772 0.125012
-0.29421347 6.388831 -0.7137935 0.43965772 0.076522216
-0.7137932 6.388831 -0.29421377 0.5237903 0.07667818
-0.7190831 6.088703 -0.7190833 0.5237903 0.1251677
-0.7137932 6.088703 -0.29421377 0.43965772 0.125012
-0.7137932 6.388831 -0.29421377 0.43965772 0.076522216
-0.7190831 6.388831 -0.71908337 0.5237903 0.07667818
-0.7137932 6.388831 -0.29421377 0.20076959 0.12863424
-0.29421347 6.388831 -0.7137935 0.30498147 0.12882489
-0.29421347 6.388831 -0.7137935 0.20076959 0.12863424
-0.7190831 6.388831 -0.71908337 0.30498147 0.12882489
0.022785531 9.011927 -0.009392727 0.66314167 0.6639973
0.009391058 9.011927 -0.022787195 0.66156536 0.66528815
-0.009393614 9.011927 -0.022787195 0.6593546 0.66528815
-0.022788083 9.011927 -0.009392724 0.6577783 0.6639973
-0.022788083 9.011927 0.009391948 0.6577783 0.662187
-0.009393611 9.011927 0.02278642 0.6593546 0.6608961
0.009391058 9.011927 0.02278642 0.66156536 0.6608961
0.022785531 9.011927 0.009391948 0.66314167 0.662187
0.058626715 8.472402 0.024164574 0.18264848 0.59431297
0.058626715 8.472402 -0.024165314 0.19049728 0.59431297
0.022785531 9.011927 -0.009392727 0.1880981 0.6658213
0.022785531 9.011927 0.009391948 0.18504742 0.6658213
-0.024164945 8.472402 0.058626354 0.18264848 0.59431297
0.024164936 8.472402 0.058626354 0.19049728 0.59431297
0.009391058 9.011927 0.02278642 0.1880981 0.6658213
-0.009393611 9.011927 0.02278642 0.18504742 0.6658213
-0.058626723 8.472402 0.024164574 0.18264848 0.59431297
-0.024164945 8.472402 0.058626354 0.19049728 0.59431297
-0.009393611 9.011927 0.02278642 0.1880981 0.6658213
-0.022788083 9.011927 0.009391948 0.18504742 0.6658213
0.058626715 8.472402 -0.024165314 0.18264848 0.59431297
0.024164936 8.472402 -0.058627084 0.19049728 0.59431297
0.009391058 9.011927 -0.022787195 0.1880981 0.6658213
0.022785531 9.011927 -0.009392727 0.18504742 0.6658213
0.024164936 8.472402 -0.058627084 0.18264848 0.59431297
-0.024164949 8.472402 -0.058627084 0.19049728 0.59431297
-0.009393614 9.011927 -0.022787195 0.1880981 0.6658213
0.009391058 9.011927 -0.022787195 0.18504742 0.6658213
-0.058626723 8.472402 -0.024165306 0.18264848 0.59431297
-0.058626723 8.472402 0.024164574 0.19049728 0.59431297
-0.022788083 9.011927 0.009391948 0.1880981 0.6658213
-0.022788083 9.011927 -0.009392724 0.18504742 0.6658213
0.024164936 8.472402 0.058626354 0.18264848 0.59431297
0.058626715 8.472402 0.024164574 0.19049728 0.59431297
0.022785531 9.011927 0.009391948 0.1880981 0.6658213
0.009391058 9.011927 0.02278642 0.18504742 0.6658213
0.71910846 0.07284018 0.71910846 0.6775744 0.28895593
0.71910846 2.3024526 0.71910834 0.67757434 0.69844043
-0.71910846 2.3024526 0.71910834 0.48339745 0.69667625
-0.71910846 0.07284018 0.71910846 0.48339745 0.28719172
0.71910846 0.07284012 -0.71910846 0.6775744 0.28895593
0.71910846 2.3024526 -0.7191086 0.67757434 0.69844043
0.71910846 2.3024526 0.71910834 0.48339745 0.69667625
0.71910846 0.07284018 0.71910846 0.48339745 0.28719172
-0.71910846 0.07284012 -0.71910846 0.6775744 0.28895593
-0.71910846 2.3024526 -0.7191086 0.67757434 0.69844043
0.71910846 2.3024526 -0.7191086 0.48339745 0.69667625
0.71910846 0.07284012 -0.71910846 0.48339745 0.28719172
-0.71910846 0.07284018 0.71910846 0.6775744 0.28895593
-0.71910846 2.3024526 0.71910834 0.67757434 0.69844043
-0.71910846 2.3024526 -0.7191086 0.48339745 0.69667625
-0.71910846 0.07284012 -0.71910846 0.48339745 0.28719172
4 0 1 2 3
4 4 5 6 7
4 8 9 10 11
4 12 13 14 15
4 16 17 18 19
4 20 21 22 23
6 24 25 26 27 28 29
4 30 31 32 33
4 34 35 36 37
4 38 39 40 41
4 42 43 44 45
4 46 47 48 49
4 50 51 52 53
4 54 55 56 57
6 58 59 60 61 62 63
6 64 65 66 67 68 69
6 65 70 63 71 72 66
4 73 74 75 76
4 77 78 79 80
4 81 82 83 84
4 85 86 87 88
4 89 90 91 92
4 93 94 95 96
4 97 98 99 100
4 101 102 103 104
4 105 106 107 108
4 109 110 111 112
4 113 114 115 116
4 117 118 119 120
4 121 122 123 124
4 125 126 127 128
4 129 130 131 132
4 133 134 135 136
4 137 138 139 140
4 141 142 143 144
4 145 146 147 148
4 149 150 151 152
4 153 154 155 156
4 157 158 159 160
4 161 162 163 164
4 165 166 167 168
4 169 170 171 172
4 84 83 173 174
4 82 175 176 83
4 82 177 178 83
4 176 175 179 180
4 181 182 183 184
4 179 185 174 180
4 83 176 180 173
4 81 84 174 185
4 175 81 185 179
4 83 178 186 173
4 187 81 185 188
3 189 190 191
4 192 193 194 195
4 196 197 198 199
3 200 201 191
3 202 203 191
3 204 205 206
4 207 208 209 210
4 211 212 213 214
3 215 216 217
3 218 219 206
3 220 221 206
4 222 223 224 225
4 226 227 228 229
3 230 231 232
3 233 234 217
3 235 236 237
4 238 239 240 241
4 242 243 244 245
3 246 247 232
3 248 249 232
8 250 251 252 253 254 255 256 257
4 258 259 260 261
4 262 263 264 265
4 266 267 268 269
4 270 271 272 273
4 274 275 276 277
4 278 279 280 281
4 282 283 284 285
4 286 287 288 289
4 290 291 292 293
4 294 295 296 297
4 298 299 300 301
