ply
format ascii 1.0
comment Created in Blender version 4.0.2
element vertex 24
property float x
property float y
property float z
property float s
property float t
element face 6
property list uchar uint vertex_indices
end_header
0.7657882 0.07557678 0.7657882 0.9540838 0.025421532
0.76578784 8.883113 0.76578784 0.9793243 0.98479974
-0.7657883 8.883113 0.76578784 0.037502855 0.98629266
-0.76578796 0.07557678 0.7657882 0.029089361 0.022436107
-0.76578796 0.07557678 0.7657882 0.9540838 0.025421532
-0.7657883 8.883113 0.76578784 0.9793243 0.98479974
-0.7657883 8.883113 -0.7657883 0.037502855 0.98629266
-0.76578796 0.07557678 -0.76578796 0.029089361 0.022436107
-0.76578796 0.07557678 -0.76578796 0.9540838 0.025421532
-0.7657883 8.883113 -0.7657883 0.9793243 0.98479974
0.76578784 8.883113 -0.7657883 0.037502855 0.98629266
0.7657882 0.07557678 -0.76578796 0.029089361 0.022436107
0.7657882 0.07557678 -0.76578796 0.9540838 0.025421532
0.76578784 8.883113 -0.7657883 0.9793243 0.98479974
0.76578784 8.883113 0.76578784 0.037502855 0.98629266
0.7657882 0.07557678 0.7657882 0.029089361 0.022436107
-0.76578796 0.07557678 0.7657882 0.125 0.5
-0.76578796 0.07557678 -0.76578796 0.375 0.5
0.7657882 0.07557678 -0.76578796 0.375 0.75
0.7657882 0.07557678 0.7657882 0.125 0.75
-0.7657883 8.883113 -0.7657883 0.14534137 0.99478686
-0.7657883 8.883113 0.76578784 0.14534137 0.90607244
0.76578784 8.883113 0.76578784 0.84984887 0.90607244
0.76578784 8.883113 -0.7657883 0.84984887 0.99478686
4 0 1 2 3
4 4 5 6 7
4 8 9 10 11
4 12 13 14 15
4 16 17 18 19
4 20 21 22 23
