ply
format ascii 1.0
comment Created in Blender version 4.0.2
element vertex 44
property float x
property float y
property float z
property float s
property float t
element face 14
property list uchar uint vertex_indices
end_header
-0.6411631 -0.014265418 -0.46467203 0.28067473 0.002612048
-0.6411631 5.119864 -0.46467227 0.2806748 0.99770474
-0.38001022 5.119864 -1.5387582 0.0016308725 0.99770474
-0.38001022 -0.014265537 -1.5387579 0.0016308129 0.002612048
-0.38001022 -0.014265537 -1.5387579 0.998674 0.002612048
-0.38001022 5.119864 -1.5387582 0.998674 0.99770474
0.38001022 5.119864 -1.5387582 0.6809204 0.99770474
0.38001022 -0.014265537 -1.5387579 0.68092036 0.002612048
0.6411631 -0.014265418 0.5611666 0.28067473 0.002612048
0.6411631 5.119864 0.56116635 0.2806748 0.99770474
0.38001022 5.119864 1.5387579 0.0034284592 0.99770474
0.38001022 -0.014265299 1.5387582 0.0034283996 0.002612048
0.38001022 -0.014265299 1.5387582 0.28067473 0.002612048
0.38001022 5.119864 1.5387579 0.2806748 0.99770474
-0.38001022 5.119864 1.5387579 0.0034284592 0.99770474
-0.38001022 -0.014265299 1.5387582 0.0034283996 0.002612048
-0.6411631 -0.014265418 0.5611666 0.125 0.670586
0.6411631 -0.014265418 0.5611666 0.375 0.670586
0.38001022 -0.014265299 1.5387582 0.375 0.75
-0.38001022 -0.014265299 1.5387582 0.125 0.75
0.6411631 5.119864 0.56116635 0.9951613 0.23487881
-0.6411631 5.119864 0.56116635 0.7701613 0.2352582
-0.38001022 5.119864 1.5387579 0.7677419 0.22261046
0.38001022 5.119864 1.5387579 0.8935484 0.22298983
0.38001022 5.119864 -1.5387582 0.81935483 0.22450726
-0.38001022 5.119864 -1.5387582 0.9741936 0.22678342
-0.6411631 5.119864 -0.46467227 0.9903226 0.23563753
0.6411631 5.119864 -0.46467227 0.75403225 0.23753434
0.6411631 5.119864 -0.46467227 0.75080645 0.2180581
-0.6411631 5.119864 -0.46467227 1.0008065 0.2180581
-0.6411631 5.119864 0.56116635 1.0008065 0.24056925
0.6411631 5.119864 0.56116635 0.75080645 0.24056925
-0.38001022 -0.014265537 -1.5387579 0.125 0.5
0.38001022 -0.014265537 -1.5387579 0.375 0.5
0.6411631 -0.014265418 -0.46467203 0.375 0.5872526
-0.6411631 -0.014265418 -0.46467203 0.125 0.5872527
0.38001022 -0.014265537 -1.5387579 0.998674 0.002612048
0.38001022 5.119864 -1.5387582 0.998674 0.99770474
0.6411631 5.119864 -0.46467227 0.6809204 0.99770474
0.6411631 -0.014265418 -0.46467203 0.68092036 0.002612048
-0.38001022 -0.014265299 1.5387582 1.0130054 0.002612048
-0.38001022 5.119864 1.5387579 1.0130055 0.99770474
-0.6411631 5.119864 0.56116635 0.6809204 0.99770474
-0.6411631 -0.014265418 0.5611666 0.68092036 0.002612048
4 0 1 2 3
4 4 5 6 7
4 8 9 10 11
4 12 13 14 15
4 16 17 18 19
4 20 21 22 23
4 24 25 26 27
4 28 29 30 31
4 32 33 34 35
4 35 34 17 16
4 36 37 38 39
4 39 38 9 8
4 40 41 42 43
4 43 42 1 0
