ply
format ascii 1.0
comment Created in Blender version 4.0.2
element vertex 24
property float x
property float y
property float z
property float s
property float t
element face 6
property list uchar uint vertex_indices
end_header
1.04284 0.060340405 0.6862885 0.98860294 0.4906773
1.0428396 6.6455803 0.6862882 0.99416107 0.99666625
-1.0428401 6.6455803 0.6862882 0.7480123 0.9976496
-1.0428398 0.060340405 0.6862885 0.7449162 0.49015403
-1.0428398 0.060340405 0.6862885 0.98860294 0.4906773
-1.0428401 6.6455803 0.6862882 0.99416107 0.99666625
-1.0428401 6.6455803 -0.68628854 0.7480123 0.9976496
-1.0428398 0.060340405 -0.68628824 0.7449162 0.49015403
-1.0428398 0.060340405 -0.68628824 0.98860294 0.4906773
-1.0428401 6.6455803 -0.68628854 0.99416107 0.99666625
1.0428396 6.6455803 -0.68628854 0.7480123 0.9976496
1.04284 0.060340405 -0.68628824 0.7449162 0.49015403
1.04284 0.060340405 -0.68628824 0.98860294 0.4906773
1.0428396 6.6455803 -0.68628854 0.99416107 0.99666625
1.0428396 6.6455803 0.6862882 0.7480123 0.9976496
1.04284 0.060340405 0.6862885 0.7449162 0.49015403
-1.0428398 0.060340405 0.6862885 0.125 0.5
-1.0428398 0.060340405 -0.68628824 0.375 0.5
1.04284 0.060340405 -0.68628824 0.375 0.75
1.04284 0.060340405 0.6862885 0.125 0.75
-1.0428401 6.6455803 -0.68628854 0.40920538 0.8588771
-1.0428401 6.6455803 0.6862882 0.39963645 0.9055879
1.0428396 6.6455803 0.6862882 0.102741465 0.9082114
1.0428396 6.6455803 -0.68628854 0.112310395 0.86150074
4 0 1 2 3
4 4 5 6 7
4 8 9 10 11
4 12 13 14 15
4 16 17 18 19
4 20 21 22 23
