ply
format ascii 1.0
comment Created in Blender version 4.0.2
element vertex 64
property float x
property float y
property float z
property float s
property float t
element face 18
property list uchar uint vertex_indices
end_header
-0.5610872 0.027557135 0.79005975 0.82356447 0.14118314
-0.5610872 4.1091747 0.7900596 0.8249112 0.99981207
-0.5610872 4.1091747 -0.79005975 0.32457608 0.99981207
-0.5610872 0.027557135 -0.7900596 0.32322928 0.14118314
-0.023058377 0.027557135 -0.7900596 0.16159782 0.003197738
-0.023058377 4.1091747 -0.79005975 0.1615978 0.99920684
0.5610872 4.1091747 -0.79005975 0 0.99920684
0.5610872 0.027557135 -0.7900596 0 0.0031977382
0.5610872 0.027557135 -0.7900596 0.82356447 0.14118314
0.5610872 4.1091747 -0.79005975 0.8249112 0.99981207
0.5610872 4.1091747 0.7900596 0.32457608 0.99981207
0.5610872 0.027557135 0.79005975 0.32322928 0.14118314
-0.023058377 0.027557135 0.79005975 0.1488401 0.0031977382
-0.023058377 4.1091747 0.7900596 0.14884007 0.99920684
-0.5610872 4.1091747 0.7900596 0 0.99920684
-0.5610872 0.027557135 0.79005975 0 0.0031977382
-0.023058377 0.027557135 -0.7900596 0.49315068 0.35086873
0.5610872 0.027557135 -0.7900596 0.6666667 0.35086873
0.5610872 0.027557135 0.79005975 0.6666666 0.64913106
-0.023058377 0.027557135 0.79005975 0.49315068 0.649131
-0.023058377 4.1091747 -0.79005975 0.082377106 0.649131
-0.5610872 4.1091747 -0.79005975 0.15825076 0.64913106
-0.5610872 4.1091747 0.7900596 0.1582507 0.9473935
-0.023058377 4.1091747 0.7900596 0.082377076 0.9473934
0.5610872 4.1091747 -0.79005975 0 0.64913106
0.5610872 4.1091747 0.7900596 0 0.9473934
-0.5610872 0.027557135 -0.7900596 0.33333337 0.35086873
-0.5610872 0.027557135 0.79005975 0.33333337 0.64913106
0.5610872 0.027557135 1.1692312 0.6666666 0.64913106
-0.023058377 0.027557135 1.1692312 0.49315068 0.649131
-0.5610872 0.027557135 -0.7900596 0.31043792 0.0031977382
-0.5610872 4.1091747 -0.79005975 0.31043786 0.99920684
-0.5610872 4.1091747 -1.0924386 0.1615978 0.99920684
-0.5610872 0.027557135 -1.0924383 0.16159782 0.003197738
-0.5610872 0.027557135 -1.0924383 0.31043792 0.0031977382
-0.5610872 4.1091747 -1.0924386 0.31043786 0.99920684
-0.023058377 4.1091747 -1.0924386 0.1615978 0.99920684
-0.023058377 0.027557135 -1.0924383 0.16159782 0.003197738
-0.023058377 4.1091747 -0.79005975 0.16159782 0.003197738
-0.023058377 0.027557135 -0.7900596 0.1615978 0.99920684
-0.023058377 0.027557135 -1.0924383 0 0.99920684
-0.023058377 4.1091747 -1.0924386 0 0.0031977382
-0.5610872 0.027557135 -1.0924383 0.33333337 0.35086873
-0.023058377 0.027557135 -1.0924383 0.49315068 0.35086873
-0.5610872 4.1091747 -0.79005975 0.082377106 0.649131
-0.023058377 4.1091747 -0.79005975 0.15825076 0.64913106
-0.023058377 4.1091747 -1.0924386 0.1582507 0.9473935
-0.5610872 4.1091747 -1.0924386 0.082377076 0.9473934
0.5610872 0.027557135 1.1692312 0.31043792 0.0031977382
0.5610872 4.1091747 1.1692309 0.31043786 0.99920684
-0.023058377 4.1091747 1.1692309 0.14884007 0.99920684
-0.023058377 0.027557135 1.1692312 0.1488401 0.0031977382
0.5610872 4.1091747 0.7900596 0.082377106 0.649131
-0.023058377 4.1091747 0.7900596 0.15825076 0.64913106
-0.023058377 4.1091747 1.1692309 0.1582507 0.9473935
0.5610872 4.1091747 1.1692309 0.082377076 0.9473934
0.5610872 0.027557135 0.79005975 0.31043792 0.0031977382
0.5610872 4.1091747 0.7900596 0.31043786 0.99920684
0.5610872 4.1091747 1.1692309 0.14884007 0.99920684
0.5610872 0.027557135 1.1692312 0.1488401 0.0031977382
-0.023058377 4.1091747 0.7900596 0.1488401 0.99920684
-0.023058377 0.027557135 0.79005975 0.14884007 0.0031977682
-0.023058377 0.027557135 1.1692312 0 0.0031977682
-0.023058377 4.1091747 1.1692309 0 0.99920684
4 0 1 2 3
4 4 5 6 7
4 8 9 10 11
4 12 13 14 15
4 16 17 18 19
4 20 21 22 23
4 24 20 23 25
4 26 16 19 27
4 19 18 28 29
4 30 31 32 33
4 34 35 36 37
4 38 39 40 41
4 16 26 42 43
4 44 45 46 47
4 48 49 50 51
4 52 53 54 55
4 56 57 58 59
4 60 61 62 63
