ply
format ascii 1.0
comment Created in Blender version 4.0.2
element vertex 24
property float x
property float y
property float z
property float s
property float t
element face 6
property list uchar uint vertex_indices
end_header
-0.797064 0.020434141 0.7970638 0.99182135 0.029731039
-0.797064 5.5008535 0.7970642 0.99182135 0.9790075
-0.797064 5.5008535 -0.7970638 0.65884197 0.9790075
-0.797064 0.020434141 -0.7970642 0.65884197 0.029731039
-0.797064 0.020434141 -0.7970642 0.99182135 0.029731039
-0.797064 5.5008535 -0.7970638 0.99182135 0.9790075
0.797064 5.5008535 -0.7970638 0.65884197 0.9790075
0.797064 0.020434141 -0.7970642 0.65884197 0.029731039
0.797064 0.020434141 -0.7970642 0.99182135 0.029731039
0.797064 5.5008535 -0.7970638 0.99182135 0.9790075
0.797064 5.5008535 0.7970642 0.65884197 0.9790075
0.797064 0.020434141 0.7970638 0.65884197 0.029731039
0.797064 0.020434141 0.7970638 0.99182135 0.029731039
0.797064 5.5008535 0.7970642 0.99182135 0.9790075
-0.797064 5.5008535 0.7970642 0.65884197 0.9790075
-0.797064 0.020434141 0.7970638 0.65884197 0.029731039
-0.797064 0.020434141 -0.7970642 0.125 0.5
0.797064 0.020434141 -0.7970642 0.375 0.5
0.797064 0.020434141 0.7970638 0.375 0.75
-0.797064 0.020434141 0.7970638 0.125 0.75
0.797064 5.5008535 -0.7970638 0.81540143 0.6629006
-0.797064 5.5008535 -0.7970638 0.83972394 0.6644968
-0.797064 5.5008535 0.7970642 0.85077906 0.9096612
0.797064 5.5008535 0.7970642 0.80317265 0.91193354
4 0 1 2 3
4 4 5 6 7
4 8 9 10 11
4 12 13 14 15
4 16 17 18 19
4 20 21 22 23
